<svg width="36" height="59" viewBox="0 0 36 59" fill="none" xmlns="http://www.w3.org/2000/svg">
<rect x="0.5" y="-0.5" width="15" height="15" rx="3.5" transform="matrix(1 0 0 -1 0 15)" fill="#18181B" stroke="#27272A"/>
<rect x="0.5" y="-0.5" width="15" height="15" rx="3.5" transform="matrix(1 0 0 -1 20 15)" fill="#4C1D95" stroke="#6D28D9"/>
<rect x="0.5" y="-0.5" width="15" height="15" rx="3.5" transform="matrix(1 0 0 -1 0 57)" fill="#5B21B6" stroke="#7C3AED"/>
<rect x="0.5" y="-0.5" width="15" height="15" rx="3.5" transform="matrix(1 0 0 -1 0 36)" fill="#6D28D9" stroke="#8B5CF6"/>
<rect x="0.5" y="-0.5" width="15" height="15" rx="3.5" transform="matrix(1 0 0 -1 20 36)" fill="#7C3AED" stroke="#A78BFA"/>
<path d="M24 58.5H32C33.933 58.5 35.5 56.933 35.5 55V47C35.5 45.067 33.933 43.5 32 43.5H24C22.067 43.5 20.5 45.067 20.5 47V55C20.5 56.933 22.067 58.5 24 58.5Z" fill="#8B5CF6" stroke="#C4B5FD"/>
</svg>
